<svg width="37" height="58" viewBox="0 0 37 58" fill="none" xmlns="http://www.w3.org/2000/svg">
<path d="M0.917961 50.9937C0.917961 55.4038 9.94623 57.7797 18.4449 57.7797C26.9436 57.7797 35.9617 55.3983 35.9617 50.9937C35.9617 47.5374 30.6507 45.5198 25.1682 44.6819C32.9355 34.2796 36.8797 25.8564 36.8797 19.6493C36.8797 8.88323 28.613 0.129272 18.4449 0.129272C8.27675 0.129272 0 8.88874 0 19.6493C0 25.8675 3.94923 34.2907 11.7216 44.6819C6.22899 45.5198 0.917961 47.5374 0.917961 50.9937ZM34.141 50.9937C34.141 53.0003 28.1692 55.7952 18.4449 55.7952C8.7206 55.7952 2.73874 53.0003 2.73874 50.9937C2.73874 49.3786 6.60223 47.2838 13.0935 46.49C13.2347 46.6719 13.3659 46.8428 13.502 47.0192C13.6382 47.1956 13.7694 47.3665 13.9055 47.5374C14.0821 47.7634 14.2536 47.9784 14.4251 48.1989C14.5562 48.3643 14.6873 48.5351 14.8134 48.6895C14.995 48.921 15.1665 49.1305 15.3329 49.3455C15.4287 49.4668 15.5296 49.5936 15.6204 49.7038C15.8726 50.018 16.1097 50.3157 16.3316 50.5858C16.9419 51.3465 17.4311 51.9529 17.7489 52.3774C17.9203 52.6089 18.1776 52.7412 18.4499 52.7412C18.7223 52.7412 18.9795 52.6089 19.151 52.3774C19.4688 51.9584 19.953 51.3521 20.5633 50.5913C20.7902 50.3102 21.0424 49.996 21.3047 49.6652C21.3198 49.6487 21.3349 49.6266 21.3501 49.6101C21.5922 49.3069 21.8444 48.9927 22.1117 48.6509C22.1974 48.5462 22.2832 48.4304 22.3689 48.3257C22.5757 48.0611 22.7875 47.7965 23.0044 47.5153C23.1154 47.372 23.2314 47.2176 23.3474 47.0688C23.4987 46.8759 23.645 46.6884 23.7963 46.49C30.2825 47.2838 34.141 49.3786 34.141 50.9937ZM18.4398 2.11931C27.5993 2.11931 35.0539 9.98574 35.0539 19.6548C35.0539 25.658 30.8978 34.1253 22.7068 44.8142C21.3501 46.5947 20.0992 48.1493 19.1863 49.2904C18.9089 49.6321 18.6618 49.9464 18.4398 50.222C18.2179 49.9408 17.9657 49.6266 17.6883 49.2848C16.7754 48.1493 15.5246 46.5892 14.1729 44.8142C5.97681 34.1363 1.81574 25.6745 1.81574 19.6548C1.81574 9.98574 9.2754 2.11931 18.4398 2.11931Z" fill="white"/>
<path d="M25.8944 17.7198C25.8944 13.2271 22.5504 9.57227 18.4397 9.57227C14.3291 9.57227 10.9851 13.2271 10.9851 17.7198C10.9851 22.2126 14.3291 25.8674 18.4397 25.8674C22.5504 25.8674 25.8944 22.2126 25.8944 17.7198ZM12.8009 17.7198C12.8009 14.3241 15.3278 11.5568 18.4397 11.5568C21.5517 11.5568 24.0786 14.3186 24.0786 17.7198C24.0786 21.1211 21.5517 23.8829 18.4397 23.8829C15.3278 23.8829 12.8009 21.1211 12.8009 17.7198Z" fill="white"/>
</svg>
