<svg width="69" height="65" viewBox="0 0 69 65" fill="none" xmlns="http://www.w3.org/2000/svg">
<path d="M32.2217 34.7494L41.1136 44.4663C41.6134 45.0125 42.2744 45.312 42.9838 45.312C43.6932 45.312 44.3543 45.0125 44.8541 44.4663L53.7459 34.7494L62.6377 25.0325C63.1375 24.4863 63.4116 23.7639 63.4116 22.9886C63.4116 22.2134 63.1375 21.491 62.6377 20.9448L53.7459 11.2279L44.8541 1.511C43.8222 0.383378 42.1454 0.383378 41.1136 1.511L32.2217 11.2279L23.3299 20.9448C22.8301 21.491 22.556 22.2134 22.556 22.9886C22.556 23.7639 22.8301 24.4863 23.3299 25.0325L32.2217 34.7494ZM43.3869 42.8541C43.2821 42.9687 43.137 43.0391 42.9838 43.0391C42.8307 43.0391 42.6936 42.9775 42.5807 42.8541L34.4225 33.9389L42.9758 24.592L51.529 33.9389L43.3708 42.8541H43.3869ZM61.3317 22.9886C61.3317 23.156 61.2753 23.3058 61.1625 23.4291L53.0042 32.3444L44.451 22.9974L53.0042 13.6505L61.1625 22.5658C61.2673 22.6803 61.3317 22.8388 61.3317 23.0062V22.9886ZM42.5807 3.1231C42.7984 2.88525 43.1612 2.88525 43.3788 3.1231L51.5371 12.0384L42.9838 21.3853L34.4306 12.0384L42.5888 3.1231H42.5807ZM24.7971 22.5569L32.9553 13.6417L41.5086 22.9886L32.9553 32.3356L24.7971 23.4203C24.6923 23.3058 24.6278 23.1472 24.6278 22.9798C24.6278 22.8124 24.6843 22.6627 24.7971 22.5394V22.5569Z" fill="white"/>
<path d="M68.4581 26.1336C68.055 25.6931 67.394 25.6931 66.9909 26.1336L45.7489 49.3467C44.9024 48.9591 43.9673 48.7389 42.9919 48.7389C42.0164 48.7389 41.0491 48.9679 40.1865 49.3644C40.1381 49.2675 40.0817 49.1794 40.0011 49.0913L14.4784 21.2002C14.2849 20.9888 14.0189 20.8655 13.7448 20.8655H1.03993C0.467566 20.8655 0 21.3765 0 22.0019C0 22.6274 0.467566 23.1384 1.03993 23.1384H13.3095L38.4049 50.5624C36.8571 51.9896 35.8655 54.1215 35.8655 56.5089C35.8655 60.7991 39.0579 64.2877 42.9838 64.2877C46.9098 64.2877 50.1021 60.7991 50.1021 56.5089C50.1021 54.1215 49.1186 51.9896 47.5627 50.5624L68.4581 27.7281C68.8612 27.2877 68.8612 26.5653 68.4581 26.1248V26.1336ZM48.0222 56.5177C48.0222 59.557 45.765 62.0237 42.9838 62.0237C40.2026 62.0237 37.9454 59.557 37.9454 56.5177C37.9454 53.4784 40.2026 51.0117 42.9838 51.0117C45.765 51.0117 48.0222 53.4784 48.0222 56.5177Z" fill="white"/>
</svg>
