<svg width="68" height="65" viewBox="0 0 68 65" fill="none" xmlns="http://www.w3.org/2000/svg">
<path d="M57.52 8.06791C51.16 3.28833 42.71 0.665283 33.74 0.665283C24.77 0.665283 16.32 3.29714 9.96002 8.06791C3.54002 12.8915 0 19.3083 0 26.1564C0 31.7898 2.49998 37.3087 7.03998 41.7538L4.56 53.6456L2.65997 62.6678C2.56997 63.1079 2.78 63.5568 3.19 63.8121C3.41 63.9441 3.66998 64.0145 3.91998 64.0145C4.14998 64.0145 4.37997 63.9617 4.58997 63.8561L19.8 55.7933L28.54 51.357C30.26 51.5595 32.01 51.6563 33.74 51.6563C42.71 51.6563 51.16 49.0244 57.52 44.2537C63.94 39.4301 67.48 33.0133 67.48 26.1652C67.48 19.3171 63.94 12.9003 57.52 8.07673V8.06791ZM33.74 49.3765C31.98 49.3765 30.2 49.2621 28.46 49.042C28.17 49.0068 27.88 49.0508 27.63 49.1829L18.52 53.804C18.52 53.804 18.51 53.804 18.5 53.8128C18.5 53.8128 18.5 53.8128 18.49 53.8128C18.49 53.8128 18.49 53.8128 18.48 53.8128L5.71997 60.5817L7.09998 54.0417L9.70001 41.5866C9.77001 41.2345 9.64999 40.8648 9.37 40.6007C4.93 36.4549 2.58002 31.4465 2.58002 26.1388C2.58002 13.3316 16.56 2.91864 33.74 2.91864C50.92 2.91864 64.9 13.3404 64.9 26.1388C64.9 38.9371 50.92 49.3589 33.74 49.3589V49.3765Z" fill="white"/>
<path d="M32.87 11.7648C30.51 11.7384 28.3 12.5218 26.62 13.9741C24.94 15.4265 24.02 17.3718 24.02 19.4403C24.02 20.0652 24.6 20.5758 25.31 20.5758C26.02 20.5758 26.6 20.0652 26.6 19.4403C26.6 17.9791 27.25 16.6148 28.43 15.5937C29.61 14.5727 31.17 14.0181 32.83 14.0357C36.12 14.0798 38.84 16.4652 38.88 19.3611C38.91 21.1743 37.1 23.1724 35.13 25.0561C32.84 27.2566 31.45 28.8498 31.45 32.2563V33.066C31.45 33.691 32.03 34.2015 32.74 34.2015C33.45 34.2015 34.03 33.691 34.03 33.066V32.2563C34.03 29.7212 34.85 28.6826 37.04 26.5877C39.36 24.3519 41.5 21.9313 41.46 19.3259C41.43 17.3278 40.52 15.4353 38.9 14.0093C37.28 12.5834 35.14 11.7824 32.86 11.756L32.87 11.7648Z" fill="white"/>
<path d="M32.93 37.8633C31.88 37.8633 31.02 38.6203 31.02 39.5445C31.02 40.4687 31.88 41.2257 32.93 41.2257C33.98 41.2257 34.84 40.4687 34.84 39.5445C34.84 38.6203 33.98 37.8633 32.93 37.8633ZM32.93 40.1342C32.56 40.1342 32.26 39.8702 32.26 39.5445C32.26 39.2188 32.56 38.9547 32.93 38.9547C33.3 38.9547 33.6 39.2188 33.6 39.5445C33.6 39.8702 33.3 40.1342 32.93 40.1342Z" fill="white"/>
</svg>
