<svg width="32" height="32" viewBox="0 0 32 32" fill="none" xmlns="http://www.w3.org/2000/svg">
<path d="M31.2831 15.6442C31.2831 7.00416 24.2801 0 15.6416 0C7.00296 0 0 7.00416 0 15.6442C0 24.2843 7.00296 31.2885 15.6416 31.2885C24.2801 31.2885 31.2831 24.2843 31.2831 15.6442Z" fill="#CECC15"/>
<path d="M17.1736 17.5022V27.0499H12.7838V17.5022H9.1413V13.6321H12.7838V12.2184C12.7838 6.98694 14.9648 4.23877 19.5881 4.23877C21.0041 4.23877 21.3592 4.46483 22.1376 4.65125V8.48165C21.2656 8.32644 21.0218 8.24799 20.1186 8.24799C19.0441 8.24799 18.4766 8.54828 17.9545 9.14718C17.4325 9.74691 17.1727 10.7861 17.1727 12.2648V13.6321H22.1418L20.8068 17.5022H17.1727H17.1736Z" fill="black"/>
</svg>
