<svg width="32" height="32" viewBox="0 0 32 32" fill="none" xmlns="http://www.w3.org/2000/svg">
<path d="M31.5868 15.6442C31.5868 7.00416 24.5839 0 15.9453 0C7.30668 0 0.303711 7.00416 0.303711 15.6442C0.303711 24.2843 7.30668 31.2885 15.9453 31.2885C24.5839 31.2885 31.5868 24.2843 31.5868 15.6442Z" fill="#CECC15"/>
<path d="M22.7812 25.9136H9.1102C7.21768 25.9136 5.67853 24.3742 5.67853 22.4813V8.80799C5.67853 6.91515 7.21768 5.37573 9.1102 5.37573H22.7812C24.6737 5.37573 26.2129 6.91515 26.2129 8.80799V22.4813C26.2129 24.3742 24.6737 25.9136 22.7812 25.9136ZM9.1102 6.49929C7.83755 6.49929 6.80189 7.53513 6.80189 8.80799V22.4813C6.80189 23.7542 7.83755 24.79 9.1102 24.79H22.7812C24.0539 24.79 25.0895 23.7542 25.0895 22.4813V8.80799C25.0895 7.53513 24.0539 6.49929 22.7812 6.49929H9.1102Z" fill="black"/>
<path d="M15.9457 20.9139C14.5381 20.9139 13.2157 20.3656 12.2206 19.3702C11.2254 18.3749 10.6772 17.0514 10.6772 15.6444C10.6772 14.2375 11.2254 12.914 12.2206 11.9186C13.2157 10.9233 14.539 10.375 15.9457 10.375C17.3525 10.375 18.6757 10.9233 19.6709 11.9186C20.6661 12.914 21.2142 14.2375 21.2142 15.6444C21.2142 17.0514 20.6661 18.3749 19.6709 19.3702C18.6757 20.3656 17.3525 20.9139 15.9457 20.9139ZM15.9457 11.4986C13.6602 11.4986 11.8006 13.3585 11.8006 15.6444C11.8006 17.9304 13.6602 19.7903 15.9457 19.7903C18.2313 19.7903 20.0909 17.9304 20.0909 15.6444C20.0909 13.3585 18.2313 11.4986 15.9457 11.4986Z" fill="black"/>
<path d="M23.4938 8.22915C23.4938 8.78755 23.041 9.24052 22.4826 9.24052C21.9243 9.24052 21.4714 8.78755 21.4714 8.22915C21.4714 7.67074 21.9243 7.21777 22.4826 7.21777C23.041 7.21777 23.4938 7.67074 23.4938 8.22915Z" fill="black"/>
</svg>
