<svg width="33" height="32" viewBox="0 0 33 32" fill="none" xmlns="http://www.w3.org/2000/svg">
<path d="M32.1943 15.6442C32.1943 7.00416 25.1913 0 16.5527 0C7.91409 0 0.911133 7.00416 0.911133 15.6442C0.911133 24.2843 7.91409 31.2885 16.5527 31.2885C25.1913 31.2885 32.1943 24.2843 32.1943 15.6442Z" fill="#CECC15"/>
<path d="M11.751 12.6462H8.0899V24.3213H11.751V12.6462Z" fill="black"/>
<path d="M21.6462 12.3862C21.5079 12.3711 21.3662 12.3601 21.222 12.3542C19.1726 12.2707 18.0138 13.487 17.6141 14.0058C17.5078 14.145 17.4547 14.2344 17.4547 14.2344V12.6722H13.953V24.3473H17.6141V18.8619C17.6141 18.0698 17.5525 17.223 17.9489 16.5034C18.2846 15.8953 18.8909 15.5908 19.5774 15.5908C21.599 15.5908 21.6471 17.4203 21.6471 17.5941V24.4004H25.3081V16.7852C25.3081 14.1796 23.984 12.6385 21.6471 12.3862H21.6462Z" fill="black"/>
<path d="M11.4216 10.5123C12.2506 9.68313 12.2506 8.33884 11.4216 7.50971C10.5926 6.68058 9.24858 6.68058 8.41959 7.50972C7.5906 8.33885 7.59061 9.68313 8.4196 10.5123C9.24859 11.3414 10.5926 11.3414 11.4216 10.5123Z" fill="black"/>
</svg>
