<svg width="32" height="32" viewBox="0 0 32 32" fill="none" xmlns="http://www.w3.org/2000/svg">
<path d="M31.8905 15.6442C31.8905 7.00416 24.8876 0 16.249 0C7.61038 0 0.607422 7.00416 0.607422 15.6442C0.607422 24.2843 7.61038 31.2885 16.249 31.2885C24.8876 31.2885 31.8905 24.2843 31.8905 15.6442Z" fill="#CECC15"/>
<path d="M7.20343 21.2776C9.15161 21.3915 10.851 20.9284 12.5158 19.7222C10.8384 19.4354 9.67197 18.6712 9.03776 17.0786C9.52438 17.0078 9.95872 17.1368 10.4647 16.9386C8.81258 16.2149 7.74319 15.1259 7.69933 13.2449C8.21969 13.2904 8.61608 13.6295 9.24101 13.5848C7.71873 12.0977 7.2574 10.4824 8.21379 8.5136C9.80016 10.339 11.6581 11.5713 13.9209 12.1551C14.044 12.1871 14.1671 12.2208 14.2903 12.2487C14.8764 12.3836 15.5646 12.6721 15.9197 12.6283C16.5303 12.5515 15.9197 11.8514 16.0748 10.9404C16.5589 8.10534 19.6769 6.81898 21.986 8.47902C22.6607 8.96404 23.1963 8.9556 23.8549 8.6629C24.2032 8.50854 24.5549 8.36092 24.9665 8.18294C24.8712 8.99609 24.2521 9.43641 23.7554 10.042C24.3221 10.1711 24.7784 10.0075 25.2954 9.84298C25.1158 10.4267 24.684 10.7565 24.2859 11.077C23.876 11.4069 23.7124 11.751 23.6955 12.2917C23.4408 20.4637 14.1579 26.7858 7.80897 21.7542C7.19331 21.2667 7.79295 21.7551 7.20427 21.2776H7.20343Z" fill="black"/>
</svg>
