<?xml version="1.0" encoding="UTF-8"?> <svg xmlns="http://www.w3.org/2000/svg" width="53" height="59" viewBox="0 0 53 59" fill="none"><path d="M46.7604 1.23589C46.5889 1.04846 46.3569 0.943726 46.1199 0.943726C45.8828 0.943726 45.6458 1.04846 45.4793 1.23589L41.0408 6.08695L17.3454 31.985C17.3454 31.985 17.3303 32.0126 17.3252 32.0181C17.2597 32.0953 17.2042 32.1835 17.1638 32.2827C17.1638 32.2937 17.1538 32.3047 17.1487 32.3158C17.1487 32.3158 17.1487 32.3268 17.1437 32.3323L13.5576 42.492C13.4264 42.8613 13.5071 43.2748 13.7644 43.5504C13.9359 43.7378 14.1729 43.8425 14.4049 43.8425C14.5159 43.8425 14.6268 43.8205 14.7328 43.7764L24.0284 39.857C24.0284 39.857 24.0334 39.857 24.0384 39.857C24.0485 39.857 24.0536 39.8459 24.0636 39.8404C24.1595 39.7963 24.2402 39.7302 24.3158 39.6585C24.3259 39.6475 24.336 39.6475 24.3461 39.6365L48.0415 13.7384L52.48 8.88734C52.833 8.50146 52.833 7.86751 52.48 7.48163L46.7705 1.2414L46.7604 1.23589ZM46.0997 13.0273L23.6904 37.5196L21.4813 35.1051L19.2721 32.6906L41.6814 8.19827L43.8905 10.6128L46.0997 13.0273ZM15.9836 41.1083L18.3289 34.4657L22.0613 38.545L15.9836 41.1083ZM47.3858 11.6216L45.1767 9.20707L42.9675 6.79256L46.1199 3.34721L50.5432 8.18173L47.3909 11.6271L47.3858 11.6216Z" fill="white"></path><path d="M0.902831 58.5886H47.9759C48.4803 58.5886 48.8838 58.1421 48.8838 57.5964V28.0049C48.8838 27.4536 48.4752 27.0126 47.9759 27.0126C47.4766 27.0126 47.068 27.4592 47.068 28.0049V56.6041H1.81574V7.86197H28.3659C28.8703 7.86197 29.2738 7.41545 29.2738 6.86971C29.2738 6.32396 28.8652 5.87744 28.3659 5.87744H0.907864C0.403492 5.87744 0 6.32396 0 6.86971V57.5964C0 58.1476 0.408535 58.5886 0.907864 58.5886H0.902831Z" fill="white"></path></svg> 