<?xml version="1.0" encoding="UTF-8"?> <svg xmlns="http://www.w3.org/2000/svg" width="40" height="68" viewBox="0 0 40 68" fill="none"><path d="M39.4742 27.14L36.0633 21.8325C35.8899 21.5565 35.8651 21.1886 36.0138 20.9034L38.8631 15.2003C39.3256 14.2805 39.3503 13.1582 38.9374 12.2108C38.5244 11.2634 37.7234 10.5919 36.7901 10.4171L31.009 9.35926C30.7116 9.30407 30.4639 9.06491 30.3813 8.73376L28.7708 2.46037C28.5148 1.44853 27.8211 0.629865 26.9291 0.289519C26.0372 -0.0600244 25.0378 0.105549 24.2698 0.712651L19.5045 4.51164C19.2567 4.70481 18.9264 4.73241 18.6703 4.56683L13.5499 1.39334C12.724 0.878225 11.7164 0.850629 10.8658 1.31056C10.0151 1.77048 9.41221 2.66274 9.25529 3.70217L8.30556 10.1411C8.25601 10.4723 8.04128 10.7482 7.74397 10.8402L2.11147 12.6339C1.203 12.9191 0.467982 13.6918 0.162407 14.6852C-0.151427 15.6786 -0.00280087 16.7917 0.542279 17.6471L3.95316 22.9547C4.1266 23.2306 4.15137 23.5986 4.00271 23.8837L1.15342 29.5868C0.690929 30.5067 0.666181 31.6289 1.07912 32.5763C1.49206 33.5238 2.29314 34.1953 3.22639 34.37L7.57052 35.1703L2.49134 55.1587C2.38398 55.591 2.49138 56.051 2.7887 56.3545C3.08601 56.6581 3.50722 56.75 3.87886 56.5937L9.47003 54.3032L12.7983 62.1312C12.9718 62.5451 13.3517 62.8119 13.7563 62.8119C13.7894 62.8119 13.8141 62.8119 13.8472 62.8119C14.2931 62.7751 14.6648 62.4255 14.7804 61.9564L19.075 45.0403L21.9408 65.737C22.0069 66.2153 22.329 66.6017 22.7502 66.712C23.1714 66.8224 23.6173 66.6292 23.8651 66.2337L27.3668 60.6134L34.2381 67.5583C34.4363 67.7607 34.6924 67.8619 34.9566 67.8619C35.1301 67.8619 35.3118 67.8159 35.4687 67.7147C35.8651 67.4663 36.0798 66.9696 36.0055 66.4729L31.3145 37.2032L31.6945 34.6552C31.744 34.324 31.9587 34.0481 32.256 33.9561L37.8885 32.1624C38.797 31.8772 39.532 31.1046 39.8376 30.1111C40.1514 29.1177 40.0028 28.0047 39.4577 27.1492L39.4742 27.14ZM13.5169 58.2586L10.9814 52.3072C10.7419 51.7552 10.1721 51.4885 9.65175 51.7001L5.10941 53.5674L9.58566 35.9246C9.58566 35.9246 9.58566 35.9246 9.58566 35.9338C9.58566 35.9338 9.61869 36.0166 9.62695 36.0534L11.2374 42.3268C11.3365 42.7223 11.5017 43.081 11.7164 43.403C11.7825 43.5042 11.8651 43.6054 11.9394 43.6973C12.2202 44.0193 12.5423 44.2676 12.9139 44.4332C13.0708 44.5068 13.2278 44.562 13.393 44.5988C13.4508 44.6172 13.5003 44.6264 13.5581 44.6356C13.7151 44.6632 13.872 44.6816 14.0289 44.6816C14.0372 44.6816 14.0537 44.6816 14.0619 44.6816C14.1197 44.6816 14.1858 44.6816 14.2436 44.6724C14.7722 44.6264 15.276 44.424 15.7137 44.0745L17.4398 42.6947L13.4921 58.2494L13.5169 58.2586ZM27.9202 57.9366C27.6889 57.7067 27.3916 57.5963 27.086 57.6331C26.7805 57.6699 26.5079 57.8539 26.3345 58.139L23.6669 62.4255L20.5946 40.2203C20.8259 40.0731 21.1149 40.0731 21.3544 40.2203L26.4749 43.3938C26.9126 43.6697 27.3998 43.7985 27.8871 43.7985C28.3166 43.7985 28.7543 43.6881 29.1507 43.4766C29.4976 43.2926 29.8032 43.0258 30.0592 42.7131L33.3792 63.4466L27.9202 57.9366ZM37.8472 29.3201C37.7646 29.596 37.5747 29.7892 37.3187 29.872L31.6862 31.6657C30.6043 32.006 29.7949 33.0271 29.6132 34.2597L29.2085 37.0008L28.6634 40.6986C28.6221 40.9838 28.4653 41.2137 28.234 41.3425C28.0028 41.4713 27.7385 41.4621 27.5155 41.3149L22.3951 38.1414C21.4123 37.5343 20.1899 37.6171 19.2815 38.3438L18.8272 38.7117L16.936 40.2295L14.5244 42.152C14.4088 42.244 14.2767 42.2992 14.128 42.3176C14.128 42.3176 14.095 42.3176 14.0784 42.3176C14.0289 42.3176 13.9876 42.3176 13.9381 42.3084C13.9215 42.3084 13.905 42.3084 13.8885 42.2992C13.8472 42.29 13.7976 42.2716 13.7563 42.2532C13.6572 42.2072 13.5664 42.1428 13.4921 42.0508C13.4921 42.0508 13.4508 42.0048 13.4342 41.9772C13.3764 41.8944 13.3352 41.7932 13.3021 41.6829L11.6916 35.4095C11.6503 35.2623 11.6008 35.1059 11.543 34.9679C11.3035 34.37 10.9071 33.8733 10.4033 33.533C10.3124 33.4778 10.2381 33.4226 10.1555 33.3858C10.0316 33.3214 9.89948 33.2662 9.7756 33.2202C9.64346 33.1742 9.51132 33.1374 9.37093 33.1098L9.11491 33.0639H9.10664L3.58977 32.052C3.33375 32.006 3.12727 31.8312 3.01165 31.5737C2.89603 31.3161 2.9043 31.0218 3.02818 30.7734L5.87747 25.0703C6.42255 23.9757 6.3482 22.6143 5.69575 21.6025L2.28487 16.2949C2.13621 16.065 2.09492 15.7706 2.1775 15.4947C2.26009 15.2187 2.45006 15.0255 2.70608 14.9428L8.33858 13.1491C9.42048 12.8087 10.2298 11.7877 10.4115 10.5551L11.3613 4.1161C11.4026 3.83095 11.5595 3.60099 11.7907 3.47221C12.022 3.34343 12.2863 3.35263 12.5093 3.4998L17.6297 6.67329C18.6125 7.2804 19.8348 7.19761 20.7433 6.47093L25.5086 2.67194C25.715 2.50636 25.9794 2.46037 26.2271 2.56155C26.4749 2.65354 26.6483 2.86511 26.7226 3.15026L28.3331 9.42365C28.6387 10.6287 29.5554 11.5301 30.6621 11.7325L36.4433 12.7903C36.6993 12.8363 36.9057 13.0111 37.0213 13.2686C37.137 13.5262 37.1287 13.8205 37.0048 14.0689L34.1556 19.772C33.6105 20.8666 33.6848 22.228 34.3372 23.2398L37.7481 28.5474C37.8968 28.7773 37.9381 29.0717 37.8555 29.3476L37.8472 29.3201Z" fill="white"></path></svg> 