<?xml version="1.0" encoding="UTF-8"?> <svg xmlns="http://www.w3.org/2000/svg" width="126" height="79" viewBox="0 0 126 79" fill="none"><path d="M17.1477 52.7789C19.9873 52.7789 21.5201 53.947 21.5201 56.2833C21.5201 58.9067 20.0744 60.475 16.5184 60.475H5.66641L7.98331 57.1836H16.7991C17.6543 57.1836 18.035 56.9157 18.035 56.2445C18.035 55.5733 17.651 55.3249 16.7991 55.3249H10.4551C7.45733 55.3249 6.08268 53.8502 6.08268 51.6495C6.08268 49.239 7.54768 47.6675 11.0843 47.6675H21.2071L18.8902 50.9976H10.8036C9.96784 50.9976 9.56771 51.2267 9.56771 51.8786C9.56771 52.5304 9.96784 52.7789 10.8036 52.7789H17.1477Z" fill="url(#paint0_linear_1_152)"></path><path d="M27.009 60.475L29.1871 57.1836H32.1139C32.8109 57.1836 33.6306 57.1836 34.1888 57.2223C33.8758 56.7641 33.3885 55.9767 33.0045 55.3668L30.9135 51.9786L25.4407 60.4782H21.1716L28.6483 48.8969C29.1355 48.1515 29.8519 47.461 30.9845 47.461C32.1172 47.461 32.7787 48.0934 33.2853 48.8969L40.5684 60.4782H27.0122L27.009 60.475Z" fill="url(#paint1_linear_1_152)"></path><path d="M47.0834 52.4723H54.5407V60.475H46.5413C42.498 60.475 39.5196 57.6611 39.5196 53.947C39.5196 50.2328 42.498 47.6675 46.5413 47.6675H54.8892L52.553 50.9976H46.5413C44.589 50.9976 43.1079 52.2981 43.1079 54.118C43.1079 55.938 44.5374 57.1803 46.5413 57.1803H50.9492V55.3249H44.9214L47.0834 52.4723Z" fill="url(#paint2_linear_1_152)"></path><path d="M63.6373 52.4723H71.0946V60.475H63.0952C59.0519 60.475 56.0735 57.6611 56.0735 53.947C56.0735 50.2328 59.0519 47.6675 63.0952 47.6675H71.4431L69.1069 50.9976H63.0952C61.1429 50.9976 59.6618 52.2981 59.6618 54.118C59.6618 55.938 61.0913 57.1803 63.0952 57.1803H67.5031V55.3249H61.4753L63.6373 52.4723Z" fill="url(#paint3_linear_1_152)"></path><path d="M86.532 57.1836L84.2151 60.475H72.992V47.6675H86.4965L84.1603 50.9976H76.6158V52.5304H85.8512L83.7763 55.441H76.6158V57.1836H86.532Z" fill="url(#paint4_linear_1_152)"></path><path d="M104.131 60.475H99.304L96.7064 57.0867H91.1658V60.475H87.5582V53.9276H97.7003C98.8168 53.9276 99.688 53.3726 99.688 52.4917C99.688 51.4978 98.9394 50.9976 97.7003 50.9976H87.5582L89.9106 47.6675H97.4034C100.053 47.6675 103.399 48.5871 103.399 52.2432C103.399 54.2342 102.266 55.8799 100.35 56.3026C100.75 56.6285 101.185 57.0867 101.989 57.987L104.131 60.475Z" fill="url(#paint5_linear_1_152)"></path><path d="M116.048 52.7789C118.888 52.7789 120.421 53.947 120.421 56.2833C120.421 58.9067 118.975 60.475 115.419 60.475H104.564L106.881 57.1836H115.697C116.552 57.1836 116.932 56.9157 116.932 56.2445C116.932 55.5733 116.548 55.3249 115.697 55.3249H109.353C106.355 55.3249 104.98 53.8502 104.98 51.6495C104.98 49.239 106.445 47.6675 109.982 47.6675H120.108L117.791 50.9976H109.704C108.868 50.9976 108.468 51.2267 108.468 51.8786C108.468 52.5304 108.868 52.7789 109.704 52.7789H116.048Z" fill="url(#paint6_linear_1_152)"></path><g style="mix-blend-mode:screen" opacity="0.55"><path d="M17.1477 52.7789C19.9873 52.7789 21.5201 53.947 21.5201 56.2833C21.5201 58.9067 20.0744 60.475 16.5184 60.475H5.66641L7.98331 57.1836H16.7991C17.6543 57.1836 18.035 56.9157 18.035 56.2445C18.035 55.5733 17.651 55.3249 16.7991 55.3249H10.4551C7.45733 55.3249 6.08268 53.8502 6.08268 51.6495C6.08268 49.239 7.54768 47.6675 11.0843 47.6675H21.2071L18.8902 50.9976H10.8036C9.96784 50.9976 9.56771 51.2267 9.56771 51.8786C9.56771 52.5304 9.96784 52.7789 10.8036 52.7789H17.1477Z" fill="#008CFF"></path><path d="M27.009 60.475L29.1871 57.1836H32.1139C32.8109 57.1836 33.6306 57.1836 34.1888 57.2223C33.8758 56.7641 33.3885 55.9767 33.0045 55.3668L30.9135 51.9786L25.4407 60.4782H21.1716L28.6483 48.8969C29.1355 48.1515 29.8519 47.461 30.9845 47.461C32.1172 47.461 32.7787 48.0934 33.2853 48.8969L40.5684 60.4782H27.0122L27.009 60.475Z" fill="#008CFF"></path><path d="M47.0834 52.4723H54.5407V60.475H46.5413C42.498 60.475 39.5196 57.6611 39.5196 53.947C39.5196 50.2328 42.498 47.6675 46.5413 47.6675H54.8892L52.553 50.9976H46.5413C44.589 50.9976 43.1079 52.2981 43.1079 54.118C43.1079 55.938 44.5374 57.1803 46.5413 57.1803H50.9492V55.3249H44.9214L47.0834 52.4723Z" fill="#008CFF"></path><path d="M63.6373 52.4723H71.0946V60.475H63.0952C59.0519 60.475 56.0735 57.6611 56.0735 53.947C56.0735 50.2328 59.0519 47.6675 63.0952 47.6675H71.4431L69.1069 50.9976H63.0952C61.1429 50.9976 59.6618 52.2981 59.6618 54.118C59.6618 55.938 61.0913 57.1803 63.0952 57.1803H67.5031V55.3249H61.4753L63.6373 52.4723Z" fill="#008CFF"></path><path d="M86.532 57.1836L84.2151 60.475H72.992V47.6675H86.4965L84.1603 50.9976H76.6158V52.5304H85.8512L83.7763 55.441H76.6158V57.1836H86.532Z" fill="#008CFF"></path><path d="M104.131 60.475H99.304L96.7064 57.0867H91.1658V60.475H87.5582V53.9276H97.7003C98.8168 53.9276 99.688 53.3726 99.688 52.4917C99.688 51.4978 98.9394 50.9976 97.7003 50.9976H87.5582L89.9106 47.6675H97.4034C100.053 47.6675 103.399 48.5871 103.399 52.2432C103.399 54.2342 102.266 55.8799 100.35 56.3026C100.75 56.6285 101.185 57.0867 101.989 57.987L104.131 60.475Z" fill="#008CFF"></path><path d="M116.048 52.7789C118.888 52.7789 120.421 53.947 120.421 56.2833C120.421 58.9067 118.975 60.475 115.419 60.475H104.564L106.881 57.1836H115.697C116.552 57.1836 116.932 56.9157 116.932 56.2445C116.932 55.5733 116.548 55.3249 115.697 55.3249H109.353C106.355 55.3249 104.98 53.8502 104.98 51.6495C104.98 49.239 106.445 47.6675 109.982 47.6675H120.108L117.791 50.9976H109.704C108.868 50.9976 108.468 51.2267 108.468 51.8786C108.468 52.5304 108.868 52.7789 109.704 52.7789H116.048Z" fill="#008CFF"></path></g><path d="M17.1477 52.7789C19.9873 52.7789 21.5201 53.947 21.5201 56.2833C21.5201 58.9067 20.0744 60.475 16.5184 60.475H5.66641L7.98331 57.1836H16.7991C17.6543 57.1836 18.035 56.9157 18.035 56.2445C18.035 55.5733 17.651 55.3249 16.7991 55.3249H10.4551C7.45733 55.3249 6.08268 53.8502 6.08268 51.6495C6.08268 49.239 7.54768 47.6675 11.0843 47.6675H21.2071L18.8902 50.9976H10.8036C9.96784 50.9976 9.56771 51.2267 9.56771 51.8786C9.56771 52.5304 9.96784 52.7789 10.8036 52.7789H17.1477Z" fill="url(#paint7_linear_1_152)"></path><path d="M27.009 60.475L29.1871 57.1836H32.1139C32.8109 57.1836 33.6306 57.1836 34.1888 57.2223C33.8758 56.7641 33.3885 55.9767 33.0045 55.3668L30.9135 51.9786L25.4407 60.4782H21.1716L28.6483 48.8969C29.1355 48.1515 29.8519 47.461 30.9845 47.461C32.1172 47.461 32.7787 48.0934 33.2853 48.8969L40.5684 60.4782H27.0122L27.009 60.475Z" fill="url(#paint8_linear_1_152)"></path><path d="M47.0834 52.4723H54.5407V60.475H46.5413C42.498 60.475 39.5196 57.6611 39.5196 53.947C39.5196 50.2328 42.498 47.6675 46.5413 47.6675H54.8892L52.553 50.9976H46.5413C44.589 50.9976 43.1079 52.2981 43.1079 54.118C43.1079 55.938 44.5374 57.1803 46.5413 57.1803H50.9492V55.3249H44.9214L47.0834 52.4723Z" fill="url(#paint9_linear_1_152)"></path><path d="M63.6373 52.4723H71.0946V60.475H63.0952C59.0519 60.475 56.0735 57.6611 56.0735 53.947C56.0735 50.2328 59.0519 47.6675 63.0952 47.6675H71.4431L69.1069 50.9976H63.0952C61.1429 50.9976 59.6618 52.2981 59.6618 54.118C59.6618 55.938 61.0913 57.1803 63.0952 57.1803H67.5031V55.3249H61.4753L63.6373 52.4723Z" fill="url(#paint10_linear_1_152)"></path><path d="M86.532 57.1836L84.2151 60.475H72.992V47.6675H86.4965L84.1603 50.9976H76.6158V52.5304H85.8512L83.7763 55.441H76.6158V57.1836H86.532Z" fill="url(#paint11_linear_1_152)"></path><path d="M104.131 60.475H99.304L96.7064 57.0867H91.1658V60.475H87.5582V53.9276H97.7003C98.8168 53.9276 99.688 53.3726 99.688 52.4917C99.688 51.4978 98.9394 50.9976 97.7003 50.9976H87.5582L89.9106 47.6675H97.4034C100.053 47.6675 103.399 48.5871 103.399 52.2432C103.399 54.2342 102.266 55.8799 100.35 56.3026C100.75 56.6285 101.185 57.0867 101.989 57.987L104.131 60.475Z" fill="url(#paint12_linear_1_152)"></path><path d="M116.048 52.7789C118.888 52.7789 120.421 53.947 120.421 56.2833C120.421 58.9067 118.975 60.475 115.419 60.475H104.564L106.881 57.1836H115.697C116.552 57.1836 116.932 56.9157 116.932 56.2445C116.932 55.5733 116.548 55.3249 115.697 55.3249H109.353C106.355 55.3249 104.98 53.8502 104.98 51.6495C104.98 49.239 106.445 47.6675 109.982 47.6675H120.108L117.791 50.9976H109.704C108.868 50.9976 108.468 51.2267 108.468 51.8786C108.468 52.5304 108.868 52.7789 109.704 52.7789H116.048Z" fill="url(#paint13_linear_1_152)"></path><path d="M6.15691 60.2201L8.1124 57.4385H16.7959C17.1638 57.4385 18.29 57.4385 18.29 56.2446C18.29 55.0506 17.167 55.07 16.7959 55.07H10.4519C7.79616 55.07 6.33438 53.8567 6.33438 51.6495C6.33438 49.1777 7.93169 47.9224 11.0779 47.9224H20.7101L18.7482 50.7427H10.7972C10.155 50.7427 9.30311 50.8621 9.30311 51.8786C9.30311 53.0338 10.4261 53.0338 10.7972 53.0338H17.1412C19.8744 53.0338 21.2587 54.1277 21.2587 56.28C21.2587 58.9293 19.7066 60.2168 16.5152 60.2168H6.15691V60.2201Z" fill="url(#paint14_linear_1_152)"></path><path d="M27.4866 60.2201L29.3259 57.4385H32.1172C32.8238 57.4385 33.6241 57.4385 34.1727 57.4772L34.6987 57.5127L34.4018 57.0771C34.1211 56.6673 33.708 56.0058 33.3401 55.4185L33.2208 55.2281L30.9168 51.4946L25.302 60.2201H21.6427L28.8645 49.0325C29.4453 48.1451 30.1391 47.7127 30.9845 47.7127C31.83 47.7127 32.5108 48.1419 33.0691 49.0292L40.1069 60.2201H27.4898H27.4866Z" fill="url(#paint15_linear_1_152)"></path><path d="M46.5445 60.2201C42.6884 60.2201 39.7778 57.5224 39.7778 53.947C39.7778 50.3716 42.5593 47.9224 46.5445 47.9224H54.3988L52.4239 50.7427H46.5445C44.4406 50.7427 42.8562 52.1948 42.8562 54.118C42.8562 56.0413 44.3729 57.4385 46.5445 57.4385H51.2106V55.07H45.4409L47.2125 52.7305H54.2858V60.2201H46.5445Z" fill="url(#paint16_linear_1_152)"></path><path d="M63.0952 60.2201C59.2391 60.2201 56.3284 57.5224 56.3284 53.947C56.3284 50.3716 59.11 47.9224 63.0952 47.9224H70.9494L68.9746 50.7427H63.0952C60.9913 50.7427 59.4069 52.1948 59.4069 54.118C59.4069 56.0413 60.9235 57.4385 63.0952 57.4385H67.7613V55.07H61.9916L63.7632 52.7305H70.8365V60.2201H63.0952Z" fill="url(#paint17_linear_1_152)"></path><path d="M73.2502 60.2201V47.9224H86.0061L84.028 50.7427H76.3609V52.7853H85.3542L83.6472 55.1829H76.3609V57.4385H86.0383L84.0828 60.2201H73.2502Z" fill="url(#paint18_linear_1_152)"></path><path d="M99.4299 60.2201L96.8322 56.8318H90.9077V60.2201H87.8131V54.1858H97.697C99.0168 54.1858 99.9397 53.4888 99.9397 52.4949C99.9397 51.3849 99.1233 50.7459 97.697 50.7459H88.0487L90.0397 47.9257H97.4002C99.1266 47.9257 103.138 48.3452 103.138 52.2432C103.138 54.1761 102.021 55.6702 100.288 56.0509L99.7687 56.1639L100.182 56.4995C100.588 56.8286 101.04 57.3159 101.789 58.1549L103.564 60.2168H99.4234L99.4299 60.2201Z" fill="url(#paint19_linear_1_152)"></path><path d="M105.058 60.2201L107.016 57.4385H115.7C116.068 57.4385 117.194 57.4385 117.194 56.2446C117.194 55.0506 116.071 55.07 115.7 55.07H109.356C106.7 55.07 105.238 53.8567 105.238 51.6495C105.238 49.1777 106.836 47.9224 109.982 47.9224H119.617L117.655 50.7427H109.704C109.062 50.7427 108.21 50.8621 108.21 51.8786C108.21 53.0338 109.333 53.0338 109.704 53.0338H116.048C118.781 53.0338 120.166 54.1277 120.166 56.28C120.166 58.9293 118.614 60.2168 115.422 60.2168H105.061L105.058 60.2201Z" fill="url(#paint20_linear_1_152)"></path><path d="M22.8528 69.9684L21.5233 71.8433H15.66V64.5505H17.7123V69.9684H22.8528Z" fill="url(#paint21_linear_1_152)"></path><path d="M25.5214 71.8433H23.4691V64.5505H25.5214V71.8433Z" fill="url(#paint22_linear_1_152)"></path><path d="M36.3153 71.8433H30.5005C28.2481 71.8433 26.4927 70.5912 26.4927 68.1904C26.4927 65.5863 28.1094 64.4279 31.3427 64.4279C34.576 64.4279 36.1959 65.5831 36.1959 68.1904C36.1959 68.6486 36.0959 69.0746 35.9087 69.4102H33.7048C34.021 69.1488 34.1501 68.7358 34.1501 68.1904C34.1501 66.6222 33.4047 66.3253 31.3427 66.3253C29.2807 66.3253 28.5353 66.6189 28.5353 68.1904C28.5353 69.5425 29.2807 69.9684 30.5005 69.9684H30.9264C31.1943 69.9684 31.4911 69.9781 31.7299 70.0007C31.5331 69.8587 31.2427 69.6296 31.0168 69.4328L30.1746 68.7132H32.8529L36.3153 71.8433Z" fill="url(#paint23_linear_1_152)"></path><path d="M45.7636 68.6616C45.7636 70.8623 44.3857 71.9659 41.6268 71.9659C38.4321 71.9659 37.0543 70.8655 37.0543 68.6616V64.5505H39.0969V68.6616C39.0969 69.7393 39.5132 70.0878 41.6268 70.0878C43.2047 70.0878 43.7016 69.6845 43.7016 68.6616V64.5505H45.7668V68.6616H45.7636Z" fill="url(#paint24_linear_1_152)"></path><path d="M48.9098 71.8433H46.8575V64.5505H48.9098V71.8433Z" fill="url(#paint25_linear_1_152)"></path><path d="M54.5343 71.8433H50.0909V67.2966H52.1561V69.9684H54.5375C55.6798 69.9684 56.5027 69.2714 56.5027 68.2227C56.5027 67.174 55.6508 66.4447 54.5375 66.4447H50.0941L51.4042 64.5473H54.5407C56.8609 64.5473 58.5388 66.0187 58.5388 68.1227C58.5388 70.2266 56.8415 71.84 54.5407 71.84L54.5343 71.8433Z" fill="url(#paint26_linear_1_152)"></path><path d="M69.8362 69.1295C69.2618 68.0065 68.9939 67.4612 68.7648 66.9384C68.5551 67.4612 68.2872 67.9968 67.7129 69.1198L66.6512 71.1914C66.4124 71.6593 66.0542 71.9659 65.5186 71.9659C64.9829 71.9659 64.5473 71.64 64.3666 70.9623L62.6789 64.5537H64.7312L65.3572 67.0933C65.567 67.9097 65.7057 68.5099 65.8026 69.1004C66.022 68.5873 66.2801 68.0323 66.7351 67.0836L67.629 65.2507C67.9775 64.5312 68.3131 64.4343 68.8003 64.4343C69.2876 64.4343 69.6425 64.5312 69.991 65.2507L70.8752 67.0933C71.3721 68.0969 71.598 68.6099 71.8078 69.1004C71.9175 68.5228 72.0659 67.9 72.266 67.0933L72.892 64.5537H74.8959L73.1792 70.9623C73.0017 71.6367 72.5435 71.9659 72.0272 71.9659C71.5109 71.9659 71.143 71.6722 70.8978 71.1914L69.8362 69.1327V69.1295Z" fill="url(#paint27_linear_1_152)"></path><path d="M77.2676 71.8433L78.5068 69.9685H80.1751C80.572 69.9685 81.0366 69.9684 81.3561 69.991C81.1786 69.7297 80.9011 69.2811 80.6817 68.9326L79.491 67.0029L76.377 71.8433H73.9472L78.2034 65.2475C78.481 64.8216 78.8875 64.4311 79.5329 64.4311C80.1783 64.4311 80.5558 64.7925 80.843 65.2475L84.9896 71.8433H77.2709H77.2676Z" fill="url(#paint28_linear_1_152)"></path><path d="M91.7757 67.4612C93.3924 67.4612 94.2669 68.1259 94.2669 69.4554C94.2669 70.9494 93.444 71.8433 91.4207 71.8433H85.2413L86.5611 69.9684H91.5821C92.0693 69.9684 92.2855 69.8168 92.2855 69.4328C92.2855 69.0488 92.0661 68.91 91.5821 68.91H87.9712C86.2642 68.91 85.4801 68.071 85.4801 66.8158C85.4801 65.4411 86.3126 64.5473 88.3262 64.5473H94.0894L92.7696 66.4447H88.1648C87.6872 66.4447 87.4614 66.577 87.4614 66.9449C87.4614 67.3127 87.6905 67.4579 88.1648 67.4579H91.7757V67.4612Z" fill="url(#paint29_linear_1_152)"></path><path d="M102.728 64.5505L101.398 66.4479H99.0265V71.8433H96.9742V66.4479H93.8603L95.1897 64.5505H102.731H102.728Z" fill="url(#paint30_linear_1_152)"></path><path d="M110.963 69.9684L109.643 71.8433H103.254V64.5505H110.943L109.614 66.4479H105.319V67.3192H110.579L109.398 68.9746H105.319V69.9652H110.966L110.963 69.9684Z" fill="url(#paint31_linear_1_152)"></path><g style="mix-blend-mode:screen" opacity="0.55"><path d="M22.8528 69.9684L21.5233 71.8433H15.66V64.5505H17.7123V69.9684H22.8528Z" fill="#008CFF"></path><path d="M25.5214 71.8433H23.4691V64.5505H25.5214V71.8433Z" fill="#008CFF"></path><path d="M36.3153 71.8433H30.5005C28.2481 71.8433 26.4927 70.5912 26.4927 68.1904C26.4927 65.5863 28.1094 64.4279 31.3427 64.4279C34.576 64.4279 36.1959 65.5831 36.1959 68.1904C36.1959 68.6486 36.0959 69.0746 35.9087 69.4102H33.7048C34.021 69.1488 34.1501 68.7358 34.1501 68.1904C34.1501 66.6222 33.4047 66.3253 31.3427 66.3253C29.2807 66.3253 28.5353 66.6189 28.5353 68.1904C28.5353 69.5425 29.2807 69.9684 30.5005 69.9684H30.9264C31.1943 69.9684 31.4911 69.9781 31.7299 70.0007C31.5331 69.8587 31.2427 69.6296 31.0168 69.4328L30.1746 68.7132H32.8529L36.3153 71.8433Z" fill="#008CFF"></path><path d="M45.7636 68.6616C45.7636 70.8623 44.3857 71.9659 41.6268 71.9659C38.4321 71.9659 37.0543 70.8655 37.0543 68.6616V64.5505H39.0969V68.6616C39.0969 69.7393 39.5132 70.0878 41.6268 70.0878C43.2047 70.0878 43.7016 69.6845 43.7016 68.6616V64.5505H45.7668V68.6616H45.7636Z" fill="#008CFF"></path><path d="M48.9098 71.8433H46.8575V64.5505H48.9098V71.8433Z" fill="#008CFF"></path><path d="M54.5343 71.8433H50.0909V67.2966H52.1561V69.9684H54.5375C55.6798 69.9684 56.5027 69.2714 56.5027 68.2227C56.5027 67.174 55.6508 66.4447 54.5375 66.4447H50.0941L51.4042 64.5473H54.5407C56.8609 64.5473 58.5388 66.0187 58.5388 68.1227C58.5388 70.2266 56.8415 71.84 54.5407 71.84L54.5343 71.8433Z" fill="#008CFF"></path><path d="M69.8362 69.1295C69.2618 68.0065 68.9939 67.4612 68.7648 66.9384C68.5551 67.4612 68.2872 67.9968 67.7129 69.1198L66.6512 71.1914C66.4124 71.6593 66.0542 71.9659 65.5186 71.9659C64.9829 71.9659 64.5473 71.64 64.3666 70.9623L62.6789 64.5537H64.7312L65.3572 67.0933C65.567 67.9097 65.7057 68.5099 65.8026 69.1004C66.022 68.5873 66.2801 68.0323 66.7351 67.0836L67.629 65.2507C67.9775 64.5312 68.3131 64.4343 68.8003 64.4343C69.2876 64.4343 69.6425 64.5312 69.991 65.2507L70.8752 67.0933C71.3721 68.0969 71.598 68.6099 71.8078 69.1004C71.9175 68.5228 72.0659 67.9 72.266 67.0933L72.892 64.5537H74.8959L73.1792 70.9623C73.0017 71.6367 72.5435 71.9659 72.0272 71.9659C71.5109 71.9659 71.143 71.6722 70.8978 71.1914L69.8362 69.1327V69.1295Z" fill="#008CFF"></path><path d="M77.2676 71.8433L78.5068 69.9685H80.1751C80.572 69.9685 81.0366 69.9684 81.3561 69.991C81.1786 69.7297 80.9011 69.2811 80.6817 68.9326L79.491 67.0029L76.377 71.8433H73.9472L78.2034 65.2475C78.481 64.8216 78.8875 64.4311 79.5329 64.4311C80.1783 64.4311 80.5558 64.7925 80.843 65.2475L84.9896 71.8433H77.2709H77.2676Z" fill="#008CFF"></path><path d="M91.7757 67.4612C93.3924 67.4612 94.2669 68.1259 94.2669 69.4554C94.2669 70.9494 93.444 71.8433 91.4207 71.8433H85.2413L86.5611 69.9684H91.5821C92.0693 69.9684 92.2855 69.8168 92.2855 69.4328C92.2855 69.0488 92.0661 68.91 91.5821 68.91H87.9712C86.2642 68.91 85.4801 68.071 85.4801 66.8158C85.4801 65.4411 86.3126 64.5473 88.3262 64.5473H94.0894L92.7696 66.4447H88.1648C87.6872 66.4447 87.4614 66.577 87.4614 66.9449C87.4614 67.3127 87.6905 67.4579 88.1648 67.4579H91.7757V67.4612Z" fill="#008CFF"></path><path d="M102.728 64.5505L101.398 66.4479H99.0265V71.8433H96.9742V66.4479H93.8603L95.1897 64.5505H102.731H102.728Z" fill="#008CFF"></path><path d="M110.963 69.9684L109.643 71.8433H103.254V64.5505H110.943L109.614 66.4479H105.319V67.3192H110.579L109.398 68.9746H105.319V69.9652H110.966L110.963 69.9684Z" fill="#008CFF"></path></g><path d="M22.8528 69.9684L21.5233 71.8433H15.66V64.5505H17.7123V69.9684H22.8528Z" fill="url(#paint32_linear_1_152)"></path><path d="M25.5214 71.8433H23.4691V64.5505H25.5214V71.8433Z" fill="url(#paint33_linear_1_152)"></path><path d="M36.3153 71.8433H30.5005C28.2481 71.8433 26.4927 70.5912 26.4927 68.1904C26.4927 65.5863 28.1094 64.4279 31.3427 64.4279C34.576 64.4279 36.1959 65.5831 36.1959 68.1904C36.1959 68.6486 36.0959 69.0746 35.9087 69.4102H33.7048C34.021 69.1488 34.1501 68.7358 34.1501 68.1904C34.1501 66.6222 33.4047 66.3253 31.3427 66.3253C29.2807 66.3253 28.5353 66.6189 28.5353 68.1904C28.5353 69.5425 29.2807 69.9684 30.5005 69.9684H30.9264C31.1943 69.9684 31.4911 69.9781 31.7299 70.0007C31.5331 69.8587 31.2427 69.6296 31.0168 69.4328L30.1746 68.7132H32.8529L36.3153 71.8433Z" fill="url(#paint34_linear_1_152)"></path><path d="M45.7636 68.6616C45.7636 70.8623 44.3857 71.9659 41.6268 71.9659C38.4321 71.9659 37.0543 70.8655 37.0543 68.6616V64.5505H39.0969V68.6616C39.0969 69.7393 39.5132 70.0878 41.6268 70.0878C43.2047 70.0878 43.7016 69.6845 43.7016 68.6616V64.5505H45.7668V68.6616H45.7636Z" fill="url(#paint35_linear_1_152)"></path><path d="M48.9098 71.8433H46.8575V64.5505H48.9098V71.8433Z" fill="url(#paint36_linear_1_152)"></path><path d="M54.5343 71.8433H50.0909V67.2966H52.1561V69.9684H54.5375C55.6798 69.9684 56.5027 69.2714 56.5027 68.2227C56.5027 67.174 55.6508 66.4447 54.5375 66.4447H50.0941L51.4042 64.5473H54.5407C56.8609 64.5473 58.5388 66.0187 58.5388 68.1227C58.5388 70.2266 56.8415 71.84 54.5407 71.84L54.5343 71.8433Z" fill="url(#paint37_linear_1_152)"></path><path d="M69.8362 69.1295C69.2618 68.0065 68.9939 67.4612 68.7648 66.9384C68.5551 67.4612 68.2872 67.9968 67.7129 69.1198L66.6512 71.1914C66.4124 71.6593 66.0542 71.9659 65.5186 71.9659C64.9829 71.9659 64.5473 71.64 64.3666 70.9623L62.6789 64.5537H64.7312L65.3572 67.0933C65.567 67.9097 65.7057 68.5099 65.8026 69.1004C66.022 68.5873 66.2801 68.0323 66.7351 67.0836L67.629 65.2507C67.9775 64.5312 68.3131 64.4343 68.8003 64.4343C69.2876 64.4343 69.6425 64.5312 69.991 65.2507L70.8752 67.0933C71.3721 68.0969 71.598 68.6099 71.8078 69.1004C71.9175 68.5228 72.0659 67.9 72.266 67.0933L72.892 64.5537H74.8959L73.1792 70.9623C73.0017 71.6367 72.5435 71.9659 72.0272 71.9659C71.5109 71.9659 71.143 71.6722 70.8978 71.1914L69.8362 69.1327V69.1295Z" fill="url(#paint38_linear_1_152)"></path><path d="M77.2676 71.8433L78.5068 69.9685H80.1751C80.572 69.9685 81.0366 69.9684 81.3561 69.991C81.1786 69.7297 80.9011 69.2811 80.6817 68.9326L79.491 67.0029L76.377 71.8433H73.9472L78.2034 65.2475C78.481 64.8216 78.8875 64.4311 79.5329 64.4311C80.1783 64.4311 80.5558 64.7925 80.843 65.2475L84.9896 71.8433H77.2709H77.2676Z" fill="url(#paint39_linear_1_152)"></path><path d="M91.7757 67.4612C93.3924 67.4612 94.2669 68.1259 94.2669 69.4554C94.2669 70.9494 93.444 71.8433 91.4207 71.8433H85.2413L86.5611 69.9684H91.5821C92.0693 69.9684 92.2855 69.8168 92.2855 69.4328C92.2855 69.0488 92.0661 68.91 91.5821 68.91H87.9712C86.2642 68.91 85.4801 68.071 85.4801 66.8158C85.4801 65.4411 86.3126 64.5473 88.3262 64.5473H94.0894L92.7696 66.4447H88.1648C87.6872 66.4447 87.4614 66.577 87.4614 66.9449C87.4614 67.3127 87.6905 67.4579 88.1648 67.4579H91.7757V67.4612Z" fill="url(#paint40_linear_1_152)"></path><path d="M102.728 64.5505L101.398 66.4479H99.0265V71.8433H96.9742V66.4479H93.8603L95.1897 64.5505H102.731H102.728Z" fill="url(#paint41_linear_1_152)"></path><path d="M110.963 69.9684L109.643 71.8433H103.254V64.5505H110.943L109.614 66.4479H105.319V67.3192H110.579L109.398 68.9746H105.319V69.9652H110.966L110.963 69.9684Z" fill="url(#paint42_linear_1_152)"></path><path d="M15.8053 71.698V64.6989H17.5671V70.1169H22.5688L21.4491 71.698H15.8053Z" fill="url(#paint43_linear_1_152)"></path><path d="M25.3762 64.6989H23.6143V71.7013H25.3762V64.6989Z" fill="url(#paint44_linear_1_152)"></path><path d="M30.5037 71.6981C28.1223 71.6981 26.6411 70.3557 26.6411 68.1904C26.6411 65.7251 28.1352 64.5763 31.3459 64.5763C34.5567 64.5763 36.0507 65.7251 36.0507 68.1904C36.0507 68.5938 35.97 68.9617 35.8216 69.265H34.0339C34.2114 68.9972 34.2985 68.6422 34.2985 68.1904C34.2985 66.4705 33.3885 66.1801 31.3459 66.1801C29.3033 66.1801 28.3933 66.4705 28.3933 68.1904C28.3933 69.5038 29.0645 70.1137 30.5037 70.1137H30.9297C31.2104 70.1137 31.5008 70.1266 31.7202 70.1459L32.2559 70.1943L31.817 69.8813C31.6267 69.7458 31.3427 69.5199 31.1136 69.3231L30.5715 68.8616H32.798L35.9378 71.6981H30.5037Z" fill="url(#paint45_linear_1_152)"></path><path d="M41.6268 71.8174C38.6064 71.8174 37.1995 70.8139 37.1995 68.6616V64.6989H38.9517V68.6616C38.9517 69.8974 39.5261 70.2363 41.6268 70.2363C43.2434 70.2363 43.8469 69.8103 43.8469 68.6616V64.6989H45.6184V68.6616C45.6184 70.7848 44.3115 71.8174 41.6268 71.8174Z" fill="url(#paint46_linear_1_152)"></path><path d="M48.7646 64.6989H47.0027V71.7013H48.7646V64.6989Z" fill="url(#paint47_linear_1_152)"></path><path d="M50.2361 71.698V67.445H52.0076V70.1169H54.5343C55.7766 70.1169 56.6447 69.3392 56.6447 68.2259C56.6447 67.1126 55.7379 66.3027 54.5343 66.3027H50.3684L51.4752 64.6989H54.5343C56.8028 64.6989 58.3872 66.1091 58.3872 68.1291C58.3872 70.1491 56.7318 71.7013 54.5343 71.7013H50.2361V71.698Z" fill="url(#paint48_linear_1_152)"></path><path d="M72.0272 71.8174C71.5948 71.8174 71.2689 71.5916 71.0269 71.1237L69.9652 69.0649C69.3779 67.9194 69.1198 67.3902 68.8971 66.8835L68.7584 66.5641L68.6293 66.89C68.426 67.4031 68.1679 67.9194 67.5838 69.0585L66.5222 71.1301C66.2834 71.598 65.9575 71.8239 65.5218 71.8239C65.0313 71.8239 64.6635 71.498 64.5118 70.9301L62.8726 64.7022H64.6215L65.2185 67.132C65.4089 67.8839 65.5605 68.5131 65.6638 69.1262L65.7477 69.6167L65.9445 69.1585C66.1575 68.6616 66.4092 68.1162 66.8739 67.1481L67.7677 65.3185C68.0969 64.6344 68.3937 64.5828 68.8068 64.5828C69.2198 64.5828 69.5361 64.6344 69.8652 65.3185L70.7494 67.1611C71.2237 68.1194 71.4561 68.6357 71.6787 69.1617L71.8659 69.6038L71.9562 69.1327C72.0692 68.5325 72.2305 67.8742 72.4112 67.1352L73.0082 64.7054H74.7088L73.0405 70.9333C72.8888 71.5012 72.5209 71.8271 72.0304 71.8271L72.0272 71.8174Z" fill="url(#paint49_linear_1_152)"></path><path d="M77.5387 71.6981L78.5874 70.1137H80.1751C80.5784 70.1137 81.0334 70.1137 81.3464 70.1362L81.6465 70.1556L81.4755 69.9071C81.3206 69.678 81.0883 69.3069 80.8818 68.9778L79.491 66.7287L76.2931 71.6981H74.2086L78.3196 65.3282C78.6488 64.8216 79.0457 64.5763 79.5265 64.5763C80.0073 64.5763 80.3945 64.8216 80.714 65.325L84.7217 71.6981H77.5387Z" fill="url(#paint50_linear_1_152)"></path><path d="M85.5156 71.698L86.6288 70.1136H91.5724C91.7822 70.1136 92.4243 70.1136 92.4243 69.4328C92.4243 68.7519 91.7854 68.7648 91.5724 68.7648H87.9615C86.4481 68.7648 85.6156 68.0743 85.6156 66.819C85.6156 65.4121 86.5256 64.6989 88.3165 64.6989H93.8022L92.6857 66.3027H88.1584C87.7937 66.3027 87.3065 66.3705 87.3065 66.9513C87.3065 67.6096 87.9454 67.6096 88.1584 67.6096H91.7693C93.3246 67.6096 94.112 68.2324 94.112 69.4586C94.112 70.9655 93.2278 71.7013 91.4111 71.7013H85.5123L85.5156 71.698Z" fill="url(#paint51_linear_1_152)"></path><path d="M97.1194 71.698V66.3027H94.1378L95.264 64.6989H102.447L101.324 66.3027H98.8813V71.698H97.1194Z" fill="url(#paint52_linear_1_152)"></path><path d="M103.402 71.698V64.6989H110.663L109.54 66.3027H105.174V67.4676H110.295L109.32 68.8326H105.174V70.1169H110.682L109.569 71.698H103.402Z" fill="url(#paint53_linear_1_152)"></path><path d="M125.994 46.5865C125.981 43.1628 123.599 40.0327 120.414 38.8742C118.165 38.2224 115.819 38.5257 113.518 38.4612C102.692 38.4677 91.8661 38.4547 81.0334 38.4741C80.3913 39.3518 79.7007 40.1973 78.965 41.0072C92.0694 41.0459 105.17 40.9814 118.278 41.0556C121.085 41.5558 123.396 44.0695 123.412 46.964C123.435 53.35 123.415 63.7148 123.419 70.0975C123.47 73.0146 121.169 75.6413 118.32 76.1254C115.516 76.2383 112.705 76.1576 109.901 76.1834C75.8414 76.1867 41.7752 76.1544 7.72838 76.206C5.06298 75.5832 2.69767 73.3341 2.64282 70.4848C2.58151 64.4505 2.63636 54.4407 2.617 48.4097C2.62023 47.1125 2.56214 45.754 3.17202 44.5697C3.95616 42.7884 5.6664 41.5848 7.5025 41.0717C20.6843 40.9427 33.8693 41.075 47.0511 41.0137C46.3315 40.194 45.641 39.3486 44.9924 38.4741C32.9045 38.4418 20.8166 38.4806 8.72871 38.4644C7.83164 38.4418 6.92489 38.5064 6.07944 38.8258C2.62668 39.6229 0.0838995 43.0531 0.0290425 46.5671C-0.0290413 52.7176 0.0290425 62.8435 6.07921e-07 68.9907C-0.00968003 70.7042 0.04195 72.4919 0.845443 74.0505C2.00389 76.4835 4.41437 78.368 7.12495 78.6423C9.21597 78.7843 11.3167 78.6714 13.4141 78.7101C48.1096 78.6843 82.8018 78.7391 117.497 78.7682C121.87 78.9618 125.903 75.2025 125.987 70.8268C126.013 64.073 125.997 53.3403 125.994 46.5865Z" fill="#337525"></path><path d="M48.6226 22.4204C52.0464 14.0434 59.3972 8.13496 63.2501 0C66.0865 6.22143 71.0688 11.0682 74.7571 16.754C73.5212 18.8095 72.3273 20.8941 71.143 22.9851C70.5396 22.4978 70.2686 21.7427 69.8361 21.1232C67.6741 17.9156 64.87 15.1244 63.2436 11.5716C61.2559 15.6181 57.929 18.7708 55.6508 22.6301C55.3862 22.9367 54.928 22.5785 54.602 22.5688C52.6659 21.9686 50.5814 21.8653 48.6226 22.4204Z" fill="#CECC15"></path><path d="M69.6103 29.3711C71.6077 25.8989 73.6535 22.4462 75.6058 18.9482C77.6613 22.3881 79.6104 25.8893 81.6401 29.3453C80.8011 29.3775 79.9589 29.3711 79.1199 29.3582C79.2941 33.808 77.3128 38.3031 73.7891 41.0491C67.829 45.7152 58.6905 45.7346 52.7046 41.104C50.0844 39.0937 48.3129 36.112 47.6062 32.9045C50.6846 33.1756 53.3371 34.9729 56.3575 35.4763C57.261 35.586 57.987 36.1637 58.7776 36.5606C62.2852 38.2805 66.8029 37.7642 69.7619 35.1827C71.427 33.7241 72.3628 31.5621 72.5112 29.3711C71.5432 29.3646 70.5751 29.3646 69.607 29.3678L69.6103 29.3711Z" fill="#CECC15"></path><path d="M42.8143 29.868C44.5342 26.7573 47.1318 23.3884 50.9944 23.1625C55.2345 23.1625 59.0261 25.6279 63.263 25.7473C65.4541 25.928 67.6322 25.544 69.6974 24.8212C67.8903 26.5572 65.909 28.2094 63.5373 29.1097C62.2917 29.4582 61.0042 29.7389 59.7005 29.6389C55.7895 29.4356 52.4594 26.5508 48.4678 26.9799C46.6252 27.0671 44.9924 28.0868 43.6113 29.2323L42.8143 29.8712V29.868Z" fill="#337525"></path><path d="M67.0288 30.039C65.2249 30.4811 63.3856 30.8942 61.5108 30.7199C57.5062 30.5779 53.905 28.4514 49.9295 28.1545C47.5449 27.9383 45.2151 29.0774 43.6758 30.8619L43.4435 31.1136C42.4303 32.2882 41.6461 33.6338 40.7491 34.889C41.7558 33.9274 42.8659 33.0917 44.1179 32.4753C45.2893 32.1171 46.48 31.6912 47.732 31.8235C51.2622 32.1204 54.2987 34.376 57.8547 34.5793C61.5237 34.7955 64.7635 32.6141 67.2837 30.1713L67.0352 30.039H67.0288Z" fill="#337525"></path><defs><linearGradient id="paint0_linear_1_152" x1="13.5949" y1="47.4577" x2="13.5949" y2="60.475" gradientUnits="userSpaceOnUse"><stop stop-color="#002454"></stop><stop offset="1" stop-color="#000D12"></stop></linearGradient><linearGradient id="paint1_linear_1_152" x1="30.8716" y1="-22.1687" x2="30.8716" y2="60.475" gradientUnits="userSpaceOnUse"><stop stop-color="#002454"></stop><stop offset="1" stop-color="#000D12"></stop></linearGradient><linearGradient id="paint2_linear_1_152" x1="47.206" y1="-22.1687" x2="47.206" y2="-22.1687" gradientUnits="userSpaceOnUse"><stop stop-color="#002454"></stop><stop offset="1" stop-color="#000D12"></stop></linearGradient><linearGradient id="paint3_linear_1_152" x1="63.7599" y1="-22.1687" x2="63.7599" y2="-22.1687" gradientUnits="userSpaceOnUse"><stop stop-color="#002454"></stop><stop offset="1" stop-color="#000D12"></stop></linearGradient><linearGradient id="paint4_linear_1_152" x1="79.762" y1="-22.1687" x2="79.762" y2="-22.1687" gradientUnits="userSpaceOnUse"><stop stop-color="#002454"></stop><stop offset="1" stop-color="#000D12"></stop></linearGradient><linearGradient id="paint5_linear_1_152" x1="95.8448" y1="-22.1687" x2="95.8448" y2="-22.1687" gradientUnits="userSpaceOnUse"><stop stop-color="#002454"></stop><stop offset="1" stop-color="#000D12"></stop></linearGradient><linearGradient id="paint6_linear_1_152" x1="112.496" y1="-22.1687" x2="112.496" y2="-22.1687" gradientUnits="userSpaceOnUse"><stop stop-color="#002454"></stop><stop offset="1" stop-color="#000D12"></stop></linearGradient><linearGradient id="paint7_linear_1_152" x1="13.5949" y1="47.4577" x2="13.5949" y2="60.475" gradientUnits="userSpaceOnUse"><stop stop-color="#A8A8A8"></stop><stop offset="1" stop-color="white"></stop></linearGradient><linearGradient id="paint8_linear_1_152" x1="30.8716" y1="-22.1687" x2="30.8716" y2="60.475" gradientUnits="userSpaceOnUse"><stop stop-color="#A8A8A8"></stop><stop offset="1" stop-color="white"></stop></linearGradient><linearGradient id="paint9_linear_1_152" x1="47.206" y1="-22.1687" x2="47.206" y2="-22.1687" gradientUnits="userSpaceOnUse"><stop stop-color="#A8A8A8"></stop><stop offset="1" stop-color="white"></stop></linearGradient><linearGradient id="paint10_linear_1_152" x1="63.7599" y1="-22.1687" x2="63.7599" y2="-22.1687" gradientUnits="userSpaceOnUse"><stop stop-color="#A8A8A8"></stop><stop offset="1" stop-color="white"></stop></linearGradient><linearGradient id="paint11_linear_1_152" x1="79.762" y1="-22.1687" x2="79.762" y2="-22.1687" gradientUnits="userSpaceOnUse"><stop stop-color="#A8A8A8"></stop><stop offset="1" stop-color="white"></stop></linearGradient><linearGradient id="paint12_linear_1_152" x1="95.8448" y1="-22.1687" x2="95.8448" y2="-22.1687" gradientUnits="userSpaceOnUse"><stop stop-color="#A8A8A8"></stop><stop offset="1" stop-color="white"></stop></linearGradient><linearGradient id="paint13_linear_1_152" x1="112.496" y1="-22.1687" x2="112.496" y2="-22.1687" gradientUnits="userSpaceOnUse"><stop stop-color="#A8A8A8"></stop><stop offset="1" stop-color="white"></stop></linearGradient><linearGradient id="paint14_linear_1_152" x1="13.7143" y1="47.7127" x2="13.7143" y2="60.2168" gradientUnits="userSpaceOnUse"><stop stop-color="#E6E6E6"></stop><stop offset="0.5" stop-color="#737373"></stop><stop offset="1" stop-color="#EBEBEB"></stop></linearGradient><linearGradient id="paint15_linear_1_152" x1="30.8748" y1="-22.1686" x2="30.8748" y2="60.2168" gradientUnits="userSpaceOnUse"><stop stop-color="#E6E6E6"></stop><stop offset="0.5" stop-color="#737373"></stop><stop offset="1" stop-color="#EBEBEB"></stop></linearGradient><linearGradient id="paint16_linear_1_152" x1="47.0867" y1="-22.1687" x2="47.0867" y2="-22.1687" gradientUnits="userSpaceOnUse"><stop stop-color="#E6E6E6"></stop><stop offset="0.5" stop-color="#737373"></stop><stop offset="1" stop-color="#EBEBEB"></stop></linearGradient><linearGradient id="paint17_linear_1_152" x1="63.6406" y1="-22.1687" x2="63.6406" y2="-22.1687" gradientUnits="userSpaceOnUse"><stop stop-color="#E6E6E6"></stop><stop offset="0.5" stop-color="#737373"></stop><stop offset="1" stop-color="#EBEBEB"></stop></linearGradient><linearGradient id="paint18_linear_1_152" x1="79.6459" y1="-22.1687" x2="79.6459" y2="-22.1687" gradientUnits="userSpaceOnUse"><stop stop-color="#E6E6E6"></stop><stop offset="0.5" stop-color="#737373"></stop><stop offset="1" stop-color="#EBEBEB"></stop></linearGradient><linearGradient id="paint19_linear_1_152" x1="95.6932" y1="-22.1686" x2="95.6932" y2="-22.1686" gradientUnits="userSpaceOnUse"><stop stop-color="#E6E6E6"></stop><stop offset="0.5" stop-color="#737373"></stop><stop offset="1" stop-color="#EBEBEB"></stop></linearGradient><linearGradient id="paint20_linear_1_152" x1="112.612" y1="-22.1687" x2="112.612" y2="-22.1687" gradientUnits="userSpaceOnUse"><stop stop-color="#E6E6E6"></stop><stop offset="0.5" stop-color="#737373"></stop><stop offset="1" stop-color="#EBEBEB"></stop></linearGradient><linearGradient id="paint21_linear_1_152" x1="19.2548" y1="64.4311" x2="19.2548" y2="71.9659" gradientUnits="userSpaceOnUse"><stop stop-color="#002454"></stop><stop offset="1" stop-color="#000D12"></stop></linearGradient><linearGradient id="paint22_linear_1_152" x1="24.4952" y1="64.4311" x2="24.4952" y2="71.9659" gradientUnits="userSpaceOnUse"><stop stop-color="#002454"></stop><stop offset="1" stop-color="#000D12"></stop></linearGradient><linearGradient id="paint23_linear_1_152" x1="31.4072" y1="64.4311" x2="31.4072" y2="71.9659" gradientUnits="userSpaceOnUse"><stop stop-color="#002454"></stop><stop offset="1" stop-color="#000D12"></stop></linearGradient><linearGradient id="paint24_linear_1_152" x1="41.4073" y1="64.4311" x2="41.4073" y2="71.9659" gradientUnits="userSpaceOnUse"><stop stop-color="#002454"></stop><stop offset="1" stop-color="#000D12"></stop></linearGradient><linearGradient id="paint25_linear_1_152" x1="47.8837" y1="64.4311" x2="47.8837" y2="71.9659" gradientUnits="userSpaceOnUse"><stop stop-color="#002454"></stop><stop offset="1" stop-color="#000D12"></stop></linearGradient><linearGradient id="paint26_linear_1_152" x1="54.3116" y1="64.4311" x2="54.3116" y2="71.9659" gradientUnits="userSpaceOnUse"><stop stop-color="#002454"></stop><stop offset="1" stop-color="#000D12"></stop></linearGradient><linearGradient id="paint27_linear_1_152" x1="68.7906" y1="64.4311" x2="68.7906" y2="71.9659" gradientUnits="userSpaceOnUse"><stop stop-color="#002454"></stop><stop offset="1" stop-color="#000D12"></stop></linearGradient><linearGradient id="paint28_linear_1_152" x1="79.4652" y1="64.4311" x2="79.4652" y2="71.9659" gradientUnits="userSpaceOnUse"><stop stop-color="#002454"></stop><stop offset="1" stop-color="#000D12"></stop></linearGradient><linearGradient id="paint29_linear_1_152" x1="89.7492" y1="64.4311" x2="89.7492" y2="71.9659" gradientUnits="userSpaceOnUse"><stop stop-color="#002454"></stop><stop offset="1" stop-color="#000D12"></stop></linearGradient><linearGradient id="paint30_linear_1_152" x1="98.294" y1="64.4311" x2="98.294" y2="71.9659" gradientUnits="userSpaceOnUse"><stop stop-color="#002454"></stop><stop offset="1" stop-color="#000D12"></stop></linearGradient><linearGradient id="paint31_linear_1_152" x1="107.11" y1="64.4311" x2="107.11" y2="71.9659" gradientUnits="userSpaceOnUse"><stop stop-color="#002454"></stop><stop offset="1" stop-color="#000D12"></stop></linearGradient><linearGradient id="paint32_linear_1_152" x1="19.2548" y1="64.4311" x2="19.2548" y2="71.9659" gradientUnits="userSpaceOnUse"><stop stop-color="#A8A8A8"></stop><stop offset="1" stop-color="white"></stop></linearGradient><linearGradient id="paint33_linear_1_152" x1="24.4952" y1="64.4311" x2="24.4952" y2="71.9659" gradientUnits="userSpaceOnUse"><stop stop-color="#A8A8A8"></stop><stop offset="1" stop-color="white"></stop></linearGradient><linearGradient id="paint34_linear_1_152" x1="31.4072" y1="64.4311" x2="31.4072" y2="71.9659" gradientUnits="userSpaceOnUse"><stop stop-color="#A8A8A8"></stop><stop offset="1" stop-color="white"></stop></linearGradient><linearGradient id="paint35_linear_1_152" x1="41.4073" y1="64.4311" x2="41.4073" y2="71.9659" gradientUnits="userSpaceOnUse"><stop stop-color="#A8A8A8"></stop><stop offset="1" stop-color="white"></stop></linearGradient><linearGradient id="paint36_linear_1_152" x1="47.8837" y1="64.4311" x2="47.8837" y2="71.9659" gradientUnits="userSpaceOnUse"><stop stop-color="#A8A8A8"></stop><stop offset="1" stop-color="white"></stop></linearGradient><linearGradient id="paint37_linear_1_152" x1="54.3116" y1="64.4311" x2="54.3116" y2="71.9659" gradientUnits="userSpaceOnUse"><stop stop-color="#A8A8A8"></stop><stop offset="1" stop-color="white"></stop></linearGradient><linearGradient id="paint38_linear_1_152" x1="68.7906" y1="64.4311" x2="68.7906" y2="71.9659" gradientUnits="userSpaceOnUse"><stop stop-color="#A8A8A8"></stop><stop offset="1" stop-color="white"></stop></linearGradient><linearGradient id="paint39_linear_1_152" x1="79.4652" y1="64.4311" x2="79.4652" y2="71.9659" gradientUnits="userSpaceOnUse"><stop stop-color="#A8A8A8"></stop><stop offset="1" stop-color="white"></stop></linearGradient><linearGradient id="paint40_linear_1_152" x1="89.7492" y1="64.4311" x2="89.7492" y2="71.9659" gradientUnits="userSpaceOnUse"><stop stop-color="#A8A8A8"></stop><stop offset="1" stop-color="white"></stop></linearGradient><linearGradient id="paint41_linear_1_152" x1="98.294" y1="64.4311" x2="98.294" y2="71.9659" gradientUnits="userSpaceOnUse"><stop stop-color="#A8A8A8"></stop><stop offset="1" stop-color="white"></stop></linearGradient><linearGradient id="paint42_linear_1_152" x1="107.11" y1="64.4311" x2="107.11" y2="71.9659" gradientUnits="userSpaceOnUse"><stop stop-color="#A8A8A8"></stop><stop offset="1" stop-color="white"></stop></linearGradient><linearGradient id="paint43_linear_1_152" x1="19.187" y1="64.5763" x2="19.187" y2="71.8174" gradientUnits="userSpaceOnUse"><stop stop-color="#E6E6E6"></stop><stop offset="0.5" stop-color="#737373"></stop><stop offset="1" stop-color="#EBEBEB"></stop></linearGradient><linearGradient id="paint44_linear_1_152" x1="24.4953" y1="64.5763" x2="24.4953" y2="71.8174" gradientUnits="userSpaceOnUse"><stop stop-color="#E6E6E6"></stop><stop offset="0.5" stop-color="#737373"></stop><stop offset="1" stop-color="#EBEBEB"></stop></linearGradient><linearGradient id="paint45_linear_1_152" x1="31.3459" y1="64.5763" x2="31.3459" y2="71.8174" gradientUnits="userSpaceOnUse"><stop stop-color="#E6E6E6"></stop><stop offset="0.5" stop-color="#737373"></stop><stop offset="1" stop-color="#EBEBEB"></stop></linearGradient><linearGradient id="paint46_linear_1_152" x1="41.4073" y1="64.5763" x2="41.4073" y2="71.8174" gradientUnits="userSpaceOnUse"><stop stop-color="#E6E6E6"></stop><stop offset="0.5" stop-color="#737373"></stop><stop offset="1" stop-color="#EBEBEB"></stop></linearGradient><linearGradient id="paint47_linear_1_152" x1="47.8837" y1="64.5763" x2="47.8837" y2="71.8174" gradientUnits="userSpaceOnUse"><stop stop-color="#E6E6E6"></stop><stop offset="0.5" stop-color="#737373"></stop><stop offset="1" stop-color="#EBEBEB"></stop></linearGradient><linearGradient id="paint48_linear_1_152" x1="54.3116" y1="64.5763" x2="54.3116" y2="71.8174" gradientUnits="userSpaceOnUse"><stop stop-color="#E6E6E6"></stop><stop offset="0.5" stop-color="#737373"></stop><stop offset="1" stop-color="#EBEBEB"></stop></linearGradient><linearGradient id="paint49_linear_1_152" x1="68.7874" y1="64.5763" x2="68.7874" y2="71.8174" gradientUnits="userSpaceOnUse"><stop stop-color="#E6E6E6"></stop><stop offset="0.5" stop-color="#737373"></stop><stop offset="1" stop-color="#EBEBEB"></stop></linearGradient><linearGradient id="paint50_linear_1_152" x1="79.4684" y1="64.5763" x2="79.4684" y2="71.8174" gradientUnits="userSpaceOnUse"><stop stop-color="#E6E6E6"></stop><stop offset="0.5" stop-color="#737373"></stop><stop offset="1" stop-color="#EBEBEB"></stop></linearGradient><linearGradient id="paint51_linear_1_152" x1="89.817" y1="64.5763" x2="89.817" y2="71.8174" gradientUnits="userSpaceOnUse"><stop stop-color="#E6E6E6"></stop><stop offset="0.5" stop-color="#737373"></stop><stop offset="1" stop-color="#EBEBEB"></stop></linearGradient><linearGradient id="paint52_linear_1_152" x1="98.294" y1="64.5763" x2="98.294" y2="71.8174" gradientUnits="userSpaceOnUse"><stop stop-color="#E6E6E6"></stop><stop offset="0.5" stop-color="#737373"></stop><stop offset="1" stop-color="#EBEBEB"></stop></linearGradient><linearGradient id="paint53_linear_1_152" x1="107.042" y1="64.5763" x2="107.042" y2="71.8174" gradientUnits="userSpaceOnUse"><stop stop-color="#E6E6E6"></stop><stop offset="0.5" stop-color="#737373"></stop><stop offset="1" stop-color="#EBEBEB"></stop></linearGradient></defs></svg> 